```plantuml
@startuml ra1028_VueFlux

package "VueFlux" {
    component "Store" {
        interface "State"
        interface "Mutations"
        interface "Actions"
        interface "Computed"
    }
}

package "VueFluxReactive" {
    component "Variable"
    component "Constant"
    component "Sink"
    component "Signal" {
        interface "Observable"
    }
    component "Binder"
}

component "Executor"

component "AtomicReference"

Store --> State
Store --> Mutations
Store --> Actions
Store --> Computed

Signal --> Observable

VueFluxReactive --> Signal
VueFluxReactive --> Binder
VueFluxReactive --> Variable
VueFluxReactive --> Constant
VueFluxReactive --> Sink

Store ..> VueFluxReactive : uses
Store ..> Executor : uses
Store ..> AtomicReference : uses

@enduml
```