```plantuml
@startuml OpenPSD_modelbank

package "OpenPSD Model Bank" {
    
    [Main] --> [Providers]
    [Main] --> [UseCases]
    [Main] --> [Entities]

    package "Entities" {
        [Ledger] 
        [FinancialInstitution] 
        [Transaction] 
        [AccountHolder] 
        [Account] 
        [Consent] 
        [PaymentInstruction] 
        [PaymentTransaction]
    }

    package "UseCases" {
        [ModelBankUsecase] 
    }

    package "Providers" {
        [ModelBankController]
        [ModelBankProto]
        [ModelBankServer]
        [DbProvider]
    }

    [ModelBankController] --> [ModelBankUsecase]
    [ModelBankProto] --> [ModelBankController]
    [ModelBankServer] --> [ModelBankProto]
    [DbProvider] --> [Entities]

    interface ModelBankControllerInputPort
    interface ModelBankControllerOutputPort
    interface ModelBankUsecaseInputPort
    interface ModelBankUsecaseOutputPort
    interface ModelBankEntityGateway

    [ModelBankController] ..> ModelBankControllerInputPort
    [ModelBankController] ..> ModelBankControllerOutputPort
    [ModelBankUsecase] ..> ModelBankUsecaseInputPort
    [ModelBankUsecase] ..> ModelBankUsecaseOutputPort
    [DbProvider] ..> ModelBankEntityGateway

}

@enduml
```